<svg width="40" height="40" viewBox="0 0 40 40" fill="none" xmlns="http://www.w3.org/2000/svg">
<mask id="mask0_501_32" style="mask-type:alpha" maskUnits="userSpaceOnUse" x="0" y="0" width="40" height="40">
<rect width="40" height="40" fill="#D9D9D9"/>
</mask>
<g mask="url(#mask0_501_32)">
<path d="M20 36.5C19.7778 36.5 19.5694 36.4583 19.375 36.375C19.1806 36.2917 19 36.1667 18.8333 36L9.5 26.7083C9.19444 26.4028 9.04167 26.0139 9.04167 25.5417C9.04167 25.0694 9.19444 24.6667 9.5 24.3333C9.83333 24 10.2292 23.8333 10.6875 23.8333C11.1458 23.8333 11.5417 24 11.875 24.3333L18.3333 30.8333V20.5417C18.3333 20.0694 18.4931 19.6736 18.8125 19.3542C19.1319 19.0347 19.5278 18.875 20 18.875C20.4722 18.875 20.8681 19.0347 21.1875 19.3542C21.5069 19.6736 21.6667 20.0694 21.6667 20.5417V30.8333L28.1667 24.3333C28.4722 24.0278 28.8542 23.875 29.3125 23.875C29.7708 23.875 30.1667 24.0417 30.5 24.375C30.8056 24.6806 30.9583 25.0694 30.9583 25.5417C30.9583 26.0139 30.8056 26.4028 30.5 26.7083L21.1667 36C21 36.1667 20.8194 36.2917 20.625 36.375C20.4306 36.4583 20.2222 36.5 20 36.5ZM20 15.5417C19.5278 15.5417 19.1319 15.3819 18.8125 15.0625C18.4931 14.7431 18.3333 14.3472 18.3333 13.875V12.2083C18.3333 11.7361 18.4931 11.3403 18.8125 11.0208C19.1319 10.7014 19.5278 10.5417 20 10.5417C20.4722 10.5417 20.8681 10.7014 21.1875 11.0208C21.5069 11.3403 21.6667 11.7361 21.6667 12.2083V13.875C21.6667 14.3472 21.5069 14.7431 21.1875 15.0625C20.8681 15.3819 20.4722 15.5417 20 15.5417ZM20 7.20833C19.5278 7.20833 19.1319 7.04861 18.8125 6.72917C18.4931 6.40972 18.3333 6.01389 18.3333 5.54167C18.3333 5.06944 18.4931 4.67361 18.8125 4.35417C19.1319 4.03472 19.5278 3.875 20 3.875C20.4722 3.875 20.8681 4.03472 21.1875 4.35417C21.5069 4.67361 21.6667 5.06944 21.6667 5.54167C21.6667 6.01389 21.5069 6.40972 21.1875 6.72917C20.8681 7.04861 20.4722 7.20833 20 7.20833Z" fill="#1C1B1F"/>
</g>
</svg>
