<svg width="37" height="37" viewBox="0 0 37 37" fill="none" xmlns="http://www.w3.org/2000/svg">
<path d="M18.5 0C8.288 0 0 8.288 0 18.5C0 28.712 8.288 37 18.5 37H27.75V33.3H18.5C10.471 33.3 3.7 26.529 3.7 18.5C3.7 10.471 10.471 3.7 18.5 3.7C26.529 3.7 33.3 10.471 33.3 18.5V21.1455C33.3 22.607 31.9865 24.05 30.525 24.05C29.0635 24.05 27.75 22.607 27.75 21.1455V18.5C27.75 13.394 23.606 9.25 18.5 9.25C13.394 9.25 9.25 13.394 9.25 18.5C9.25 23.606 13.394 27.75 18.5 27.75C21.053 27.75 23.384 26.714 25.049 25.0305C26.2515 26.677 28.3235 27.75 30.525 27.75C34.1695 27.75 37 24.79 37 21.1455V18.5C37 8.288 28.712 0 18.5 0ZM18.5 24.05C15.429 24.05 12.95 21.571 12.95 18.5C12.95 15.429 15.429 12.95 18.5 12.95C21.571 12.95 24.05 15.429 24.05 18.5C24.05 21.571 21.571 24.05 18.5 24.05Z" fill="#DCDCDC"/>
</svg>
