<svg width="37" height="37" viewBox="0 0 37 37" fill="none" xmlns="http://www.w3.org/2000/svg">
<path d="M18.5 4.625C21.0438 4.625 23.125 6.70625 23.125 9.25C23.125 11.7937 21.0438 13.875 18.5 13.875C15.9563 13.875 13.875 11.7937 13.875 9.25C13.875 6.70625 15.9563 4.625 18.5 4.625ZM18.5 27.75C24.7437 27.75 31.9125 30.7331 32.375 32.375H4.625C5.15688 30.71 12.2794 27.75 18.5 27.75ZM18.5 0C13.3894 0 9.25 4.13937 9.25 9.25C9.25 14.3606 13.3894 18.5 18.5 18.5C23.6106 18.5 27.75 14.3606 27.75 9.25C27.75 4.13937 23.6106 0 18.5 0ZM18.5 23.125C12.3256 23.125 0 26.2237 0 32.375V37H37V32.375C37 26.2237 24.6744 23.125 18.5 23.125Z" fill="#DCDCDC"/>
</svg>
